<svg id="visual" viewBox="0 0 900 300" width="900" height="300" xmlns="http://www.w3.org/2000/svg" xmlns:xlink="http://www.w3.org/1999/xlink" version="1.1"><path d="M0 143L21.5 143.8C43 144.7 86 146.3 128.8 154.3C171.7 162.3 214.3 176.7 257.2 173.7C300 170.7 343 150.3 385.8 141.7C428.7 133 471.3 136 514.2 144.5C557 153 600 167 642.8 170.5C685.7 174 728.3 167 771.2 160.8C814 154.7 857 149.3 878.5 146.7L900 144L900 0L878.5 0C857 0 814 0 771.2 0C728.3 0 685.7 0 642.8 0C600 0 557 0 514.2 0C471.3 0 428.7 0 385.8 0C343 0 300 0 257.2 0C214.3 0 171.7 0 128.8 0C86 0 43 0 21.5 0L0 0Z" fill="#ffffff"></path><path d="M0 163L21.5 161C43 159 86 155 128.8 144.8C171.7 134.7 214.3 118.3 257.2 116.3C300 114.3 343 126.7 385.8 127.2C428.7 127.7 471.3 116.3 514.2 111.2C557 106 600 107 642.8 111.7C685.7 116.3 728.3 124.7 771.2 129.2C814 133.7 857 134.3 878.5 134.7L900 135L900 0L878.5 0C857 0 814 0 771.2 0C728.3 0 685.7 0 642.8 0C600 0 557 0 514.2 0C471.3 0 428.7 0 385.8 0C343 0 300 0 257.2 0C214.3 0 171.7 0 128.8 0C86 0 43 0 21.5 0L0 0Z" fill="#c6c6c6"></path><path d="M0 126L21.5 124.2C43 122.3 86 118.7 128.8 113.7C171.7 108.7 214.3 102.3 257.2 103.7C300 105 343 114 385.8 112.8C428.7 111.7 471.3 100.3 514.2 100.3C557 100.3 600 111.7 642.8 115.2C685.7 118.7 728.3 114.3 771.2 109C814 103.7 857 97.3 878.5 94.2L900 91L900 0L878.5 0C857 0 814 0 771.2 0C728.3 0 685.7 0 642.8 0C600 0 557 0 514.2 0C471.3 0 428.7 0 385.8 0C343 0 300 0 257.2 0C214.3 0 171.7 0 128.8 0C86 0 43 0 21.5 0L0 0Z" fill="#919191"></path><path d="M0 90L21.5 92.5C43 95 86 100 128.8 101.5C171.7 103 214.3 101 257.2 98.3C300 95.7 343 92.3 385.8 88C428.7 83.7 471.3 78.3 514.2 76C557 73.7 600 74.3 642.8 73C685.7 71.7 728.3 68.3 771.2 70.5C814 72.7 857 80.3 878.5 84.2L900 88L900 0L878.5 0C857 0 814 0 771.2 0C728.3 0 685.7 0 642.8 0C600 0 557 0 514.2 0C471.3 0 428.7 0 385.8 0C343 0 300 0 257.2 0C214.3 0 171.7 0 128.8 0C86 0 43 0 21.5 0L0 0Z" fill="#5e5e5e"></path><path d="M0 53L21.5 54.2C43 55.3 86 57.7 128.8 57.5C171.7 57.3 214.3 54.7 257.2 56.5C300 58.3 343 64.7 385.8 67.2C428.7 69.7 471.3 68.3 514.2 67.7C557 67 600 67 642.8 68.2C685.7 69.3 728.3 71.7 771.2 72.7C814 73.7 857 73.3 878.5 73.2L900 73L900 0L878.5 0C857 0 814 0 771.2 0C728.3 0 685.7 0 642.8 0C600 0 557 0 514.2 0C471.3 0 428.7 0 385.8 0C343 0 300 0 257.2 0C214.3 0 171.7 0 128.8 0C86 0 43 0 21.5 0L0 0Z" fill="#303030"></path><path d="M0 34L21.5 31.2C43 28.3 86 22.7 128.8 22.8C171.7 23 214.3 29 257.2 30.3C300 31.7 343 28.3 385.8 28.2C428.7 28 471.3 31 514.2 34.3C557 37.7 600 41.3 642.8 41.2C685.7 41 728.3 37 771.2 35.5C814 34 857 35 878.5 35.5L900 36L900 0L878.5 0C857 0 814 0 771.2 0C728.3 0 685.7 0 642.8 0C600 0 557 0 514.2 0C471.3 0 428.7 0 385.8 0C343 0 300 0 257.2 0C214.3 0 171.7 0 128.8 0C86 0 43 0 21.5 0L0 0Z" fill="#000000"></path></svg>