<svg id="visual" viewBox="0 0 900 300" width="900" height="300" xmlns="http://www.w3.org/2000/svg" xmlns:xlink="http://www.w3.org/1999/xlink" version="1.1"><path d="M0 38L21.5 41.8C43 45.7 86 53.3 128.8 59.2C171.7 65 214.3 69 257.2 67.2C300 65.3 343 57.7 385.8 54.7C428.7 51.7 471.3 53.3 514.2 58.2C557 63 600 71 642.8 69.3C685.7 67.7 728.3 56.3 771.2 53.2C814 50 857 55 878.5 57.5L900 60L900 0L878.5 0C857 0 814 0 771.2 0C728.3 0 685.7 0 642.8 0C600 0 557 0 514.2 0C471.3 0 428.7 0 385.8 0C343 0 300 0 257.2 0C214.3 0 171.7 0 128.8 0C86 0 43 0 21.5 0L0 0Z" fill="#0D0D10" stroke-linecap="round" stroke-linejoin="miter"></path></svg>