<svg id="visual" viewBox="0 0 900 300" width="900" height="300" xmlns="http://www.w3.org/2000/svg" xmlns:xlink="http://www.w3.org/1999/xlink" version="1.1"><path d="M0 93L13.7 90C27.3 87 54.7 81 82 80.5C109.3 80 136.7 85 163.8 88.3C191 91.7 218 93.3 245.2 89C272.3 84.7 299.7 74.3 327 69.7C354.3 65 381.7 66 409 69.8C436.3 73.7 463.7 80.3 491 80.7C518.3 81 545.7 75 573 75.7C600.3 76.3 627.7 83.7 654.8 85.8C682 88 709 85 736.2 83C763.3 81 790.7 80 818 78.5C845.3 77 872.7 75 886.3 74L900 73L900 0L886.3 0C872.7 0 845.3 0 818 0C790.7 0 763.3 0 736.2 0C709 0 682 0 654.8 0C627.7 0 600.3 0 573 0C545.7 0 518.3 0 491 0C463.7 0 436.3 0 409 0C381.7 0 354.3 0 327 0C299.7 0 272.3 0 245.2 0C218 0 191 0 163.8 0C136.7 0 109.3 0 82 0C54.7 0 27.3 0 13.7 0L0 0Z" fill="#000" stroke-linecap="round" stroke-linejoin="miter"></path></svg>