<svg id="visual" viewBox="0 0 900 100" width="900" height="100" xmlns="http://www.w3.org/2000/svg" xmlns:xlink="http://www.w3.org/1999/xlink" version="1.1"><path d="M0 81L11.5 75.7C23 70.3 46 59.7 69 53.8C92 48 115 47 138.2 52.8C161.3 58.7 184.7 71.3 207.8 76.5C231 81.7 254 79.3 277 73.8C300 68.3 323 59.7 346 61C369 62.3 392 73.7 415.2 78.8C438.3 84 461.7 83 484.8 80.8C508 78.7 531 75.3 554 70.8C577 66.3 600 60.7 623 57.7C646 54.7 669 54.3 692.2 55.2C715.3 56 738.7 58 761.8 61.2C785 64.3 808 68.7 831 69.7C854 70.7 877 68.3 888.5 67.2L900 66L900 101L888.5 101C877 101 854 101 831 101C808 101 785 101 761.8 101C738.7 101 715.3 101 692.2 101C669 101 646 101 623 101C600 101 577 101 554 101C531 101 508 101 484.8 101C461.7 101 438.3 101 415.2 101C392 101 369 101 346 101C323 101 300 101 277 101C254 101 231 101 207.8 101C184.7 101 161.3 101 138.2 101C115 101 92 101 69 101C46 101 23 101 11.5 101L0 101Z" fill="#000" stroke-linecap="round" stroke-linejoin="miter"></path></svg>